<?xml version="1.0" encoding="UTF-8" standalone="no"?>
<svg
   version="1.1"
   id="Capa_1"
   x="0px"
   y="0px"
   width="1050.8834"
   height="951.48499"
   viewBox="0 0 1050.8834 951.48499"
   xml:space="preserve"
   sodipodi:docname="butterfly.svg"
   inkscape:version="1.3.2 (091e20e, 2023-11-25, custom)"
   inkscape:export-filename="butterfly.png"
   inkscape:export-xdpi="96"
   inkscape:export-ydpi="96"
   xmlns:inkscape="http://www.inkscape.org/namespaces/inkscape"
   xmlns:sodipodi="http://sodipodi.sourceforge.net/DTD/sodipodi-0.dtd"
   xmlns="http://www.w3.org/2000/svg"
   xmlns:svg="http://www.w3.org/2000/svg"><defs
   id="defs3"><clipPath
     clipPathUnits="userSpaceOnUse"
     id="clipPath200"><path
       id="path201"
       style="fill:#ff0000;fill-opacity:1;fill-rule:nonzero;stroke:none"
       d="m 404.76953,120.19727 v 27.09765 c 0.075,-0.052 0.18886,-0.079 0.33985,-0.0605 0.15342,0.0191 0.30838,0.0184 0.46289,0.0234 0.37704,0.0133 0.75432,0.003 1.13085,-0.0137 0.19431,-0.009 0.38994,-0.0197 0.58399,-0.0332 0.0174,-10e-4 0.0344,-0.002 0.0508,-0.002 0.32297,-0.001 0.33716,0.17483 0.22461,0.32813 0.33575,0.0128 0.67209,0.0273 1.00781,0.041 0.25299,0.01 0.50495,0.0183 0.75781,0.0273 0.14991,0.006 0.30128,0.0135 0.45118,0.0195 0.10877,0.004 0.21736,0.007 0.32617,0.01 0.0168,0.001 0.032,3.5e-4 0.0488,0.002 0.0249,7.7e-4 0.0188,0.0192 0.0371,0.0254 0.0608,-0.002 0.1211,-0.003 0.18164,-0.006 0.0573,-0.002 0.11457,-0.005 0.17187,-0.008 0.0226,-0.0103 0.0517,-0.0169 0.0879,-0.0156 0.054,0.002 0.10808,0.003 0.16211,0.004 h 0.002 c 0.0833,-0.004 0.16655,-0.007 0.25,-0.01 0.009,-3.1e-4 0.006,0.007 0.0137,0.008 0.0762,-9.4e-4 0.15236,-4.7e-4 0.22851,-0.002 0.2259,-0.004 0.45182,-0.008 0.67774,-0.01 0.0539,-5.6e-4 0.058,0.0311 0.082,0.0527 0.20652,-0.002 0.41257,-0.003 0.61914,-0.008 0.0916,-0.002 0.15599,-0.005 0.24609,-0.008 l 0.24024,-0.0117 c 0.19338,-0.008 0.1991,0.18731 0.008,0.19531 l -0.24219,0.0117 c -0.0916,0.003 -0.15496,0.006 -0.24804,0.008 -0.25099,0.006 -0.50289,0.006 -0.75391,0.01 -0.23192,0.004 -0.46385,0.007 -0.69531,0.0234 v 0.002 c -0.0218,0.002 -0.0218,-0.0143 -0.0391,-0.0176 -0.024,0.0244 -0.0661,0.0412 -0.125,0.0391 -0.21243,-0.007 -0.10557,-0.005 -0.3164,-0.0117 -0.1886,-0.006 -0.37792,-0.0125 -0.56641,-0.0215 -0.0396,-0.002 -0.0704,-0.0112 -0.0937,-0.0254 h -0.002 c -0.0768,0.002 -0.15349,0.005 -0.23047,0.006 -0.18489,8e-4 -0.3698,-0.003 -0.55469,0 -0.17381,0.002 -0.34785,0.007 -0.52148,0.0156 -0.0652,0.004 -0.13012,0.009 -0.19532,0.0117 -0.0241,0.001 -0.0444,6.8e-4 -0.0625,-0.006 h -0.002 c -0.007,1.5e-4 -0.013,-2.3e-4 -0.0195,0 -0.0982,0.002 -0.19672,0.004 -0.29492,0.004 -0.1466,0.001 -0.29287,6e-4 -0.43945,-0.002 -0.17723,-0.003 -0.35402,-0.008 -0.53125,-0.01 -0.18182,-0.001 -0.36312,3.5e-4 -0.54493,-0.004 -0.17018,-0.003 -0.34173,-0.007 -0.51171,-0.0117 -0.12939,-0.004 -0.25742,-0.006 -0.38672,-0.0117 -0.0997,-0.005 -0.20124,-0.009 -0.30078,-0.0137 -0.079,-0.004 -0.15723,-0.01 -0.23633,-0.0117 -0.0803,-0.002 -0.16014,-0.006 -0.24024,-0.0117 -0.0509,-0.004 -0.10224,-0.008 -0.15234,-0.0176 -0.0382,-0.008 -0.0657,-0.0224 -0.0859,-0.0391 V 532.55273 H 743.86719 V 148.71484 c -0.0498,0.01 -0.10643,0.0112 -0.16992,0.008 -0.11473,-0.009 -0.2292,-0.0183 -0.34375,-0.0293 -0.21028,-0.0216 -0.42008,-0.0427 -0.63086,-0.0586 -0.19775,-0.0132 -0.39581,-0.0232 -0.59375,-0.0332 -0.22683,-0.0103 -0.45293,-0.0233 -0.67969,-0.0352 -0.27144,-0.0133 -0.54273,-0.0194 -0.81445,-0.0234 -0.22925,-0.002 -0.45827,-0.004 -0.6875,-0.008 -0.1956,-0.004 -0.39257,-0.0125 -0.58789,-0.0215 -0.17824,-0.009 -0.35678,-0.0184 -0.53516,-0.0234 -0.19041,-0.006 -0.37997,-0.0115 -0.57031,-0.0195 -0.1018,-0.004 -0.20319,-0.0117 -0.30469,-0.0176 -0.0658,0.0357 -0.15363,0.0586 -0.26367,0.0586 -0.0911,-3e-5 -0.18234,3e-5 -0.27344,0 -0.30087,0.002 -0.60159,0.0102 -0.90234,0.0156 -0.0609,0.0827 -0.18268,0.14461 -0.36719,0.14258 -0.15365,-10e-4 -0.30728,-0.002 -0.46094,-0.002 -0.36727,0 -0.7343,-9.5e-4 -1.10156,-0.002 -0.43945,-0.002 -0.87893,-0.004 -1.31836,-0.01 -0.43909,-0.006 -0.87936,-0.0105 -1.31836,-0.0215 -0.38041,-0.0107 -0.76058,-0.0228 -1.14063,-0.043 -0.13417,-0.006 -0.26805,-0.0118 -0.40234,-0.0117 -0.0148,0.001 -0.01,0.0155 -0.0254,0.0156 -0.31023,0.003 -0.61946,0.004 -0.92969,0 -0.46093,-0.004 -0.92193,-0.01 -1.38281,-0.0176 -0.62179,-0.008 -1.2435,-0.0196 -1.86523,-0.0312 -0.62539,-0.0129 -1.2516,-0.0265 -1.87696,-0.041 -0.002,0 -0.37199,-0.007 -0.40039,-0.008 -0.0467,-8.1e-4 -0.13755,-0.003 -0.18945,-0.002 -0.0308,0.001 -0.0541,0.004 -0.084,0.006 -0.16193,0.0114 -0.27722,-0.0312 -0.34765,-0.0957 -0.0755,1.6e-4 -0.15093,0.002 -0.22656,0.002 -0.30747,-5e-4 -0.61651,-0.009 -0.92383,-0.0176 -0.28086,-0.006 -0.56092,-0.002 -0.8418,0.002 -0.3399,0.002 -0.67962,8e-4 -1.01953,0.002 -0.37201,0.001 -0.74328,6.4e-4 -1.11523,0.004 -0.37022,0.003 -0.74109,0.007 -1.11133,0.006 -0.35478,0.001 -0.70968,0.002 -1.06446,0.004 -0.3557,0.002 -0.71082,0.004 -1.0664,0.0137 -0.34929,0.011 -0.69831,0.0295 -1.04688,0.0547 -0.43546,0.0308 -0.87255,0.0603 -1.30859,0.082 -0.4498,0.0242 -0.89929,0.045 -1.34961,0.0566 -0.47542,0.0124 -0.95021,0.0214 -1.42578,0.0254 -0.4316,0.004 -0.86331,0.005 -1.29492,0 -0.14054,-9.5e-4 -0.28135,-0.003 -0.42188,-0.004 -0.54686,-0.005 -0.54686,-0.55774 0,-0.55274 0.14219,0.001 0.28357,0.003 0.42578,0.004 0.42818,0.005 0.85698,0.004 1.28516,0 0.47254,-0.004 0.94558,-0.0131 1.41797,-0.0254 0.44521,-0.0114 0.88929,-0.0307 1.33398,-0.0547 0.43294,-0.0216 0.86645,-0.0514 1.29883,-0.082 0.35575,-0.0257 0.71188,-0.0434 1.06836,-0.0547 0.36021,-0.01 0.71975,-0.0136 1.08008,-0.0156 0.35576,-0.002 0.71063,-0.004 1.0664,-0.004 0.36908,0.001 0.73837,-0.003 1.10743,-0.006 0.3729,-0.003 0.74623,-0.003 1.11914,-0.004 0.1484,-5.3e-4 0.29686,6e-5 0.44531,0 -0.0661,-0.15935 -3.7e-4,-0.33241 0.32812,-0.33203 0.16648,1.9e-4 0.33352,-4.8e-4 0.5,0 0.25922,0.001 0.51816,0.002 0.77735,0.006 0.2972,0.005 0.59562,0.0124 0.89258,0.0254 0.34556,0.0149 0.68946,0.0312 1.03515,0.043 0.39652,0.0122 0.79299,0.0208 1.18945,0.0332 0.48338,0.017 0.9681,0.0383 1.45118,0.0625 0.1924,0.008 0.24365,0.0106 0.43554,0.0156 0.30171,0.008 0.60449,0.007 0.90625,0.0117 0.47918,0.008 0.95904,0.02 1.4375,0.0488 0.23502,0.0134 0.46953,0.0313 0.70508,0.0293 0.0374,-3.3e-4 0.0712,0.003 0.10352,0.008 0.21752,0.004 0.43518,0.006 0.65234,0.0117 0.18833,0.005 0.35304,0.0135 0.54102,0.0215 0.0864,0.004 0.17336,0.008 0.25976,0.0117 0.32932,0.0153 0.65858,0.029 0.98828,0.0371 -0.0167,-0.13404 0.0827,-0.26897 0.31641,-0.28516 0.0301,-0.002 0.0616,-0.002 0.0957,0 0.20496,0.0136 0.0995,0.007 0.32032,0.0195 0.35963,0.0201 0.71855,0.0414 1.07812,0.0625 0.15694,0.008 0.31378,0.0173 0.4707,0.0254 -0.006,-0.13589 0.12069,-0.27084 0.37305,-0.27539 0.016,-3e-4 0.0318,7e-4 0.0488,0.002 0.25744,0.0125 0.12459,0.004 0.39844,0.0195 0.50508,0.0296 1.01052,0.0625 1.51562,0.0918 0.48682,0.0235 0.97365,0.0408 1.46094,0.0508 0.43828,0.006 0.8762,0.005 1.31445,-0.004 0.17688,-0.003 0.35433,-0.007 0.53125,-0.006 0.32926,0.002 0.4598,0.20289 0.39258,0.36133 0.1107,0.009 0.22146,0.0161 0.33203,0.0254 0.27007,0.0227 0.54034,0.0455 0.81055,0.0664 0.22913,0.0155 0.45791,0.0264 0.6875,0.0312 0.20638,0.005 0.41279,0.0116 0.61914,0.0176 0.0557,0.001 0.11219,0.002 0.16797,0.004 v -27.88476 z m 32.13477,27.47461 c 0.0107,-5e-4 0.0231,1.4e-4 0.0352,0.002 0.0515,0.004 0.0246,-0.001 0.0801,0.006 0.11906,0.0103 0.23794,0.0205 0.35742,0.0234 0.14985,0.004 0.29941,0.004 0.44922,0.01 0.11316,0.004 0.22655,0.0101 0.33985,0.0137 0.007,-9.9e-4 0.004,-0.01 0.0117,-0.01 0.0107,-2.4e-4 0.0231,-2.2e-4 0.0352,0.002 0.0138,0.001 0.006,1.5e-4 0.0215,0.002 0.0243,0.002 0.0482,0.004 0.0723,0.006 0.001,1.1e-4 0.003,-1.1e-4 0.004,0 0.0261,-9.5e-4 0.0523,-0.002 0.0781,-0.006 0.0516,-0.007 0.0907,0.002 0.11719,0.0195 0.008,6.6e-4 0.0155,4e-4 0.0234,0.002 0.0361,0.003 0.0732,0.004 0.10937,0.006 0.0401,0.003 0.0789,0.005 0.11914,0.008 0.0257,10e-4 0.052,0.004 0.0781,0.006 0.0148,-0.0351 0.0333,-0.0742 0.10156,-0.0762 0.006,-1.7e-4 0.0115,0.002 0.0176,0.002 0.004,1.5e-4 0.008,-1.5e-4 0.0117,0 0.0273,7.1e-4 0.0546,-2e-4 0.082,0 0.0301,2e-5 0.0617,-8e-5 0.0918,0 0.0259,9e-5 0.0503,-5.2e-4 0.0762,0 0.0265,0.001 0.0536,0.002 0.0801,0.004 0.0306,0.002 0.0611,0.01 0.0918,0.0117 l 0.0606,0.0117 h 0.002 c 0.0571,0.005 0.0595,0.0401 0.0801,0.0664 0.0156,3e-4 0.0312,-1.9e-4 0.0469,0 h 0.10547 c 0.19335,0 0.19335,0.19531 0,0.19531 h -0.10547 c -0.0675,-0.001 -0.13552,-0.007 -0.20312,-0.008 -0.0485,-4.8e-4 -0.096,-0.002 -0.14453,-0.002 -0.0431,-1.5e-4 -0.0858,3e-5 -0.12891,0 -0.0382,-2e-5 -0.077,1e-5 -0.11523,0 -0.0405,0 -0.0806,7e-4 -0.1211,-0.002 -0.0394,-0.002 -0.0797,-0.01 -0.11914,-0.0117 -0.0403,-0.003 -0.0808,-0.007 -0.12109,-0.01 -0.0367,-0.002 -0.0727,-0.003 -0.10938,-0.006 -0.0327,-0.002 -0.065,-0.006 -0.0976,-0.008 -0.0332,-0.003 -0.0664,-0.004 -0.0996,-0.006 -0.005,-4.2e-4 -0.009,-0.002 -0.0137,-0.002 -0.0241,6.6e-4 -0.0483,0.002 -0.0723,0.002 -0.13809,-0.002 -0.27607,-0.0106 -0.41406,-0.0156 -0.14899,-0.006 -0.29627,-0.006 -0.44531,-0.01 -0.12343,-0.003 -0.24811,-0.0129 -0.3711,-0.0234 -0.0559,-0.005 -0.0284,-0.003 -0.0801,-0.008 -0.1806,-0.0159 -0.17716,-0.18804 -0.0176,-0.19531 z" /></clipPath></defs><sodipodi:namedview
   id="namedview3"
   pagecolor="#505050"
   bordercolor="#ffffff"
   borderopacity="1"
   inkscape:showpageshadow="0"
   inkscape:pageopacity="0"
   inkscape:pagecheckerboard="1"
   inkscape:deskcolor="#505050"
   inkscape:zoom="0.35355339"
   inkscape:cx="534.57273"
   inkscape:cy="439.82042"
   inkscape:window-width="2560"
   inkscape:window-height="1369"
   inkscape:window-x="-8"
   inkscape:window-y="-8"
   inkscape:window-maximized="1"
   inkscape:current-layer="Capa_1" />
<g
   id="g3"
   transform="translate(-49.997078,-112.756)">
	<path
   fill="#73D4EA"
   d="m 982.17613,144.76739 c -154.41,-62.902003 -353.973,225.614 -400.418,411.61 -46.442,-185.996 -246.004,-474.513003 -400.415,-411.61 -175.8829959,71.661 -149.811996,436.448 123.359,579.762 -104.23,136.796 -142.902,299.65201 13.434,332.22001 105.691,22.014 193.461,-63.19801 239.243,-201.19601 0.574,88.351 11.242,158.84801 24.379,158.84801 13.141,0 23.809,-70.49701 24.383,-158.84801 45.781,137.998 133.551,223.21001 239.238,201.19601 156.33997,-32.567 117.664,-195.42401 13.438,-332.22001 273.17097,-143.314 299.24097,-508.101 123.359,-579.762 z"
   id="path1"
   style="fill:#ffa9f2;fill-opacity:1" />
	<path
   id="path2"
   style="display:inline;fill:#b46cb1;fill-opacity:1"
   d="m 731.63867,120.19727 c -0.006,0.007 -0.068,0.0803 -0.0781,0.0918 0.0645,0.004 0.1289,0.009 0.19336,0.0137 z m -325.91992,27.39062 c -0.1127,0.002 -0.22521,0.009 -0.33789,0.0117 -0.12569,0.10057 -0.3217,0.18875 -0.60547,0.26367 -0.002,5.3e-4 -0.004,0.001 -0.006,0.002 42.1645,52.97878 142.80363,196.27088 154.68945,371.97852 0.468,6.86972 5.98429,12.31745 12.86329,12.68945 0.25,0.02 0.49609,0.0195 0.74609,0.0195 6.56172,0 12.2413,-4.71446 13.4043,-11.24218 39.17086,-220.34659 135.07104,-346.13669 157.39453,-373.09375 -0.14908,-0.009 -0.29833,-0.0169 -0.44727,-0.0274 -0.74693,-0.0534 -1.49301,-0.0995 -2.24023,-0.14843 -1.03884,-0.0576 -2.07904,-0.12135 -3.11914,-0.15235 -1.08229,-0.0355 -2.16331,-0.0585 -3.2461,-0.0273 -1.09408,0.021 -2.18834,0.0468 -3.28125,0.10351 -0.9724,0.0484 -1.94623,0.0915 -2.91992,0.10157 -0.95389,0.014 -1.90735,0.0137 -2.86133,0.006 -0.89423,-0.006 -1.7895,-0.015 -2.68359,-0.0332 -0.70614,-0.014 -1.41085,-0.0266 -2.11719,-0.0176 -0.57539,0.002 -1.15122,0.004 -1.72656,0.0117 -0.57561,0.009 -1.15138,0.0222 -1.72656,0.0469 -0.67571,0.0254 -1.35162,0.0378 -2.02735,0.0625 -0.7085,0.0281 -1.41644,0.0554 -2.125,0.082 -0.72101,0.0326 -1.44231,0.0604 -2.16406,0.0684 -0.60314,0.011 -1.20657,0.0242 -1.80859,0.0644 C 676.72604,192.21422 614.88968,289.1149 576.04478,440.71102 548.6368,307.58213 480.65112,202.43985 439.32994,147.82625 c -0.23367,-1.4e-4 -0.46731,-4e-4 -0.70117,0 -0.40287,0.001 -0.80613,0.003 -1.20899,0.006 -0.47076,0.004 -0.94157,0.0119 -1.41211,0.0273 -0.5692,0.02 -1.13746,0.0496 -1.70703,0.0566 -0.75991,0.0145 -1.52114,0.0376 -2.28125,0.0312 -0.79892,-0.004 -1.59772,-0.009 -2.39648,-0.0274 -0.86568,-0.021 -1.73046,-0.0515 -2.59571,-0.0859 -0.82927,-0.0228 -1.65881,-0.0475 -2.48828,-0.0625 -0.63262,-0.0172 -1.26566,-0.0213 -1.89844,-0.0293 -0.6748,-0.012 -1.34868,-0.0307 -2.02343,-0.0527 -0.752,-0.0197 -1.506,-0.0208 -2.25781,-0.041 -0.80913,-0.0155 -1.61849,-0.0147 -2.42774,-0.0117 -0.75834,0.002 -1.51513,0.006 -2.27344,0.0137 -0.74901,0.008 -1.49913,0.0221 -2.24804,0.0371 -0.76122,0.007 -1.5221,-0.004 -2.28321,-0.0176 -0.65933,-0.0148 -1.31776,-0.0356 -1.97656,-0.0664 -0.47677,-0.0116 -0.95469,-0.0314 -1.43164,-0.0156 z"
   clip-path="url(#clipPath200)" />
	<path
   fill="#3F3F3F"
   d="m 806.26,1064.241 c -0.012,0 -0.02,0 -0.02,0 -77.836,0 -148.008,-56.146 -194.879,-153.151 -4.582,71.309 -16.614,107.358 -35.918,107.358 -19.313,0 -31.344,-36.05 -35.926,-107.358 -46.871,97.005 -117.055,153.151 -194.879,153.151 -11.707,0 -23.684,-1.26 -35.594,-3.74 C 253.825,1049.003 217.833,1021.74 202.06,979.479 177.9,914.754 206.294,818.312 278.091,719.388 112.287,625.226 44.087,453.868 50.396,322.797 55.064,226.002 99.728,151.153 169.884,122.565 c 15.98,-6.508 32.93,-9.809 50.383,-9.809 143.762,0 297.578,217.904 355.176,386.304 57.586,-168.399 211.399,-386.304 355.168,-386.304 17.453,0 34.398,3.301 50.383,9.809 70.156,28.589 114.82,103.438 119.488,200.232 6.305,131.071 -61.891,302.429 -227.707,396.591 71.805,98.914 100.203,195.348 76.043,260.081 -15.762,42.271 -51.766,69.534 -106.988,81.032 -11.898,2.48 -23.871,3.74 -35.57,3.74 z M 599.822,832.339 c 5.786,0 11.051,3.692 12.93,9.342 40.574,122.292 112.914,195.299 193.488,195.309 0.008,0 0.008,0 0.02,0 9.836,0 19.934,-1.069 30.02,-3.168 45.449,-9.466 74.723,-30.955 87.004,-63.875 21.574,-57.807 -9.703,-152.351 -81.633,-246.741 -2.434,-3.188 -3.328,-7.29 -2.461,-11.212 0.867,-3.922 3.414,-7.252 6.977,-9.113 165.297,-86.719 233.16,-252.724 227.09,-378.775 -4.141,-85.917 -42.469,-151.825 -102.547,-176.291 -12.703,-5.172 -26.184,-7.806 -40.098,-7.806 -136.699,0 -301.676,248.773 -341.942,410.083 -1.52,6.069 -6.965,10.325 -13.227,10.325 -6.25,0 -11.707,-4.256 -13.227,-10.325 -40.277,-161.31 -205.258,-410.083 -341.949,-410.083 -13.914,0 -27.406,2.634 -40.098,7.806 -60.078,24.466 -98.41,90.374 -102.551,176.291 -6.066,126.052 61.797,292.057 227.086,378.775 3.559,1.861 6.105,5.191 6.973,9.113 0.871,3.922 -0.027,8.024 -2.461,11.212 -71.918,94.391 -103.188,188.944 -81.621,246.741 12.277,32.92 41.555,54.409 87.004,63.875 10.086,2.099 20.191,3.168 30.039,3.168 80.574,0 152.914,-73.017 193.484,-195.309 2.109,-6.337 8.504,-10.249 15.07,-9.171 6.59,1.04 11.457,6.708 11.496,13.369 0.402,62.521 5.68,105.937 10.754,129.038 5.066,-23.102 10.344,-66.518 10.746,-129.038 0.035,-6.661 4.902,-12.329 11.496,-13.369 0.716,-0.114 1.435,-0.171 2.138,-0.171 z"
   id="path3"
   style="fill:#b46cb1;fill-opacity:1" />
</g>
</svg>
